<svg width="39" height="24" viewBox="0 0 39 24" fill="none" xmlns="http://www.w3.org/2000/svg">
<path fill-rule="evenodd" clip-rule="evenodd" d="M26.9457 12.7588C24.9371 12.7588 23.3088 14.3871 23.3088 16.3956C23.3088 17.5755 23.8707 18.6241 24.7414 19.2886C25.5037 20.1978 26.9622 22.4129 26.6977 23.9999C27.91 23.8622 30.4172 23.0081 30.7478 20.6937C31.0101 18.8578 30.8538 17.155 30.5521 15.9234C30.476 15.3366 30.2601 14.7937 29.9388 14.3292C29.2825 13.3804 28.1867 12.7588 26.9457 12.7588ZM27 17.2501C27.4142 17.2501 27.75 16.9143 27.75 16.5001C27.75 16.0859 27.4142 15.7501 27 15.7501C26.5858 15.7501 26.25 16.0859 26.25 16.5001C26.25 16.9143 26.5858 17.2501 27 17.2501Z" fill="white"/>
<path fill-rule="evenodd" clip-rule="evenodd" d="M10.5479 12.7588C12.5565 12.7588 14.1847 14.3871 14.1847 16.3956C14.1847 17.5755 13.6229 18.6241 12.7522 19.2886C11.9899 20.1978 10.5314 22.4129 10.7959 23.9999C9.58359 23.8622 7.07637 23.0081 6.74575 20.6937C6.48347 18.8578 6.63981 17.155 6.94144 15.9234C7.01753 15.3366 7.23347 14.7937 7.55473 14.3292C8.21103 13.3804 9.30687 12.7588 10.5479 12.7588ZM10.5 17.2501C10.0858 17.2501 9.75002 16.9143 9.75002 16.5001C9.75002 16.0859 10.0858 15.7501 10.5 15.7501C10.9142 15.7501 11.25 16.0859 11.25 16.5001C11.25 16.9143 10.9142 17.2501 10.5 17.2501Z" fill="white"/>
<path d="M21.2425 19.7018C18.9942 18.0487 16.8342 19.013 16.0352 19.7018L17.9362 22.0988C18.3408 22.3517 18.8542 22.3517 19.2587 22.0988L21.2425 19.7018Z" fill="white"/>
<path d="M4.39878 13.3375C4.06815 9.56837 8.33869 4.60354 10.5153 2.59226C7.10107 -1.31759 3.87026 -0.0719202 2.07371 1.58381C1.41125 2.19435 0.950259 2.99073 0.633864 3.83424C-1.47296 9.45102 2.16142 12.4888 4.39878 13.3375Z" fill="white"/>
<path d="M33.1629 13.3375C33.4935 9.56837 29.223 4.60354 27.0464 2.59226C30.4606 -1.31759 33.6914 -0.0719202 35.4879 1.58381C36.1504 2.19435 36.6114 2.99073 36.9278 3.83424C39.0346 9.45102 35.4002 12.4888 33.1629 13.3375Z" fill="white"/>
</svg>
